<mxfile host="app.diagrams.net" modified="2023-09-18T00:11:24.908Z" agent="Mozilla/5.0 (Windows NT 10.0; Win64; x64) AppleWebKit/537.36 (KHTML, like Gecko) Chrome/116.0.0.0 Safari/537.36" etag="gwfJyeWvK9CK1ZKfRx4T" version="21.7.5" type="device">
  <diagram id="C5RBs43oDa-KdzZeNtuy" name="Page-1">
    <mxGraphModel dx="910" dy="470" grid="1" gridSize="10" guides="1" tooltips="1" connect="1" arrows="1" fold="1" page="1" pageScale="1" pageWidth="827" pageHeight="1169" math="0" shadow="0">
      <root>
        <mxCell id="WIyWlLk6GJQsqaUBKTNV-0" />
        <mxCell id="WIyWlLk6GJQsqaUBKTNV-1" parent="WIyWlLk6GJQsqaUBKTNV-0" />
        <mxCell id="JxpAUDQ2TrkmLamKXuE_-19" value="" style="rounded=0;whiteSpace=wrap;html=1;absoluteArcSize=1;arcSize=14;strokeWidth=1;fillColor=none;dashed=1;" parent="WIyWlLk6GJQsqaUBKTNV-1" vertex="1">
          <mxGeometry x="1135" y="600" width="350" height="460" as="geometry" />
        </mxCell>
        <mxCell id="t8ODhXi5mGrMNo_j4XH1-55" value="" style="rounded=0;whiteSpace=wrap;html=1;absoluteArcSize=1;arcSize=14;strokeWidth=1;fillColor=none;dashed=1;dashPattern=12 12;" parent="WIyWlLk6GJQsqaUBKTNV-1" vertex="1">
          <mxGeometry x="365" y="604" width="430" height="710" as="geometry" />
        </mxCell>
        <mxCell id="t8ODhXi5mGrMNo_j4XH1-27" value="Yes" style="rounded=0;html=1;jettySize=auto;orthogonalLoop=1;fontSize=11;endArrow=block;endFill=0;endSize=8;strokeWidth=1;shadow=0;labelBackgroundColor=none;edgeStyle=orthogonalEdgeStyle;exitX=1;exitY=0.5;exitDx=0;exitDy=0;exitPerimeter=0;" parent="WIyWlLk6GJQsqaUBKTNV-1" source="t8ODhXi5mGrMNo_j4XH1-23" target="t8ODhXi5mGrMNo_j4XH1-32" edge="1">
          <mxGeometry y="15" relative="1" as="geometry">
            <mxPoint as="offset" />
            <mxPoint x="485" y="1060" as="sourcePoint" />
            <mxPoint x="484.74" y="1090" as="targetPoint" />
          </mxGeometry>
        </mxCell>
        <mxCell id="WIyWlLk6GJQsqaUBKTNV-2" value="" style="rounded=0;html=1;jettySize=auto;orthogonalLoop=1;fontSize=11;endArrow=block;endFill=0;endSize=8;strokeWidth=1;shadow=0;labelBackgroundColor=none;edgeStyle=orthogonalEdgeStyle;" parent="WIyWlLk6GJQsqaUBKTNV-1" source="WIyWlLk6GJQsqaUBKTNV-3" target="WIyWlLk6GJQsqaUBKTNV-6" edge="1">
          <mxGeometry relative="1" as="geometry" />
        </mxCell>
        <mxCell id="WIyWlLk6GJQsqaUBKTNV-3" value="Start" style="rounded=1;whiteSpace=wrap;html=1;fontSize=12;glass=0;strokeWidth=1;shadow=0;arcSize=50;fillColor=#d5e8d4;strokeColor=#82b366;" parent="WIyWlLk6GJQsqaUBKTNV-1" vertex="1">
          <mxGeometry x="455" y="450" width="60" height="40" as="geometry" />
        </mxCell>
        <mxCell id="WIyWlLk6GJQsqaUBKTNV-5" value="No" style="edgeStyle=orthogonalEdgeStyle;rounded=0;html=1;jettySize=auto;orthogonalLoop=1;fontSize=11;endArrow=block;endFill=0;endSize=8;strokeWidth=1;shadow=0;labelBackgroundColor=none;" parent="WIyWlLk6GJQsqaUBKTNV-1" source="WIyWlLk6GJQsqaUBKTNV-6" target="WIyWlLk6GJQsqaUBKTNV-7" edge="1">
          <mxGeometry x="-0.142" y="15" relative="1" as="geometry">
            <mxPoint as="offset" />
            <Array as="points">
              <mxPoint x="605" y="675" />
              <mxPoint x="605" y="675" />
            </Array>
          </mxGeometry>
        </mxCell>
        <mxCell id="WIyWlLk6GJQsqaUBKTNV-7" value="render 에러페이지" style="rounded=1;whiteSpace=wrap;html=1;fontSize=12;glass=0;strokeWidth=1;shadow=0;fillColor=#fff2cc;strokeColor=#d6b656;" parent="WIyWlLk6GJQsqaUBKTNV-1" vertex="1">
          <mxGeometry x="860" y="655" width="120" height="40" as="geometry" />
        </mxCell>
        <mxCell id="WIyWlLk6GJQsqaUBKTNV-9" value="Yes" style="edgeStyle=orthogonalEdgeStyle;rounded=0;html=1;jettySize=auto;orthogonalLoop=1;fontSize=11;endArrow=block;endFill=0;endSize=8;strokeWidth=1;shadow=0;labelBackgroundColor=none;exitX=0.5;exitY=1;exitDx=0;exitDy=0;entryX=0.5;entryY=0;entryDx=0;entryDy=0;entryPerimeter=0;" parent="WIyWlLk6GJQsqaUBKTNV-1" source="WIyWlLk6GJQsqaUBKTNV-10" target="t8ODhXi5mGrMNo_j4XH1-23" edge="1">
          <mxGeometry x="0.2308" y="20" relative="1" as="geometry">
            <mxPoint as="offset" />
            <mxPoint x="561" y="870" as="sourcePoint" />
            <mxPoint x="626" y="870" as="targetPoint" />
            <Array as="points" />
          </mxGeometry>
        </mxCell>
        <mxCell id="t8ODhXi5mGrMNo_j4XH1-1" value="&lt;h1&gt;&amp;nbsp; attend app&lt;/h1&gt;&lt;div&gt;&lt;b&gt;&amp;nbsp; 1. check_attendance()&lt;/b&gt; : 출근 입력&lt;/div&gt;&lt;div&gt;&lt;span style=&quot;&quot;&gt;&lt;span style=&quot;&quot;&gt;&amp;nbsp; &amp;nbsp; &amp;nbsp;&amp;nbsp;&lt;/span&gt;&lt;/span&gt;[&amp;nbsp;input ] image path(연결 캠 url 주소)&lt;/div&gt;&lt;div&gt;&amp;nbsp; &amp;nbsp; &amp;nbsp; [ output ] render attend/webcam.html&lt;br&gt;&lt;/div&gt;&lt;div&gt;&lt;br&gt;&lt;/div&gt;&lt;div&gt;&lt;span style=&quot;&quot;&gt;&amp;nbsp; &amp;nbsp; &amp;nbsp;&amp;nbsp;&lt;b&gt;1)&amp;nbsp;&lt;/b&gt;&lt;/span&gt;&lt;b&gt;safety_chk()&lt;/b&gt; : 보호구 착용 확인safety_check 테이블 데이터 입력 함수&lt;br&gt;&lt;/div&gt;&lt;div&gt;&lt;span style=&quot;&quot;&gt;&lt;span style=&quot;&quot;&gt;&amp;nbsp;&amp;nbsp;&amp;nbsp;&amp;nbsp;&lt;/span&gt;&lt;/span&gt;&lt;span style=&quot;&quot;&gt;&lt;span style=&quot;&quot;&gt;&amp;nbsp; &amp;nbsp; &amp;nbsp;&amp;nbsp;&lt;/span&gt;&lt;/span&gt;[ input ] worker 정보, attendance 정보, image path&lt;/div&gt;&lt;div&gt;&lt;span style=&quot;&quot;&gt;&lt;span style=&quot;white-space: pre;&quot;&gt;    &amp;nbsp;&amp;nbsp;&amp;nbsp;  &amp;nbsp;&lt;/span&gt;&lt;/span&gt;[ output ] IpCam.cam_2 - result&lt;/div&gt;&lt;div&gt;&lt;br&gt;&lt;/div&gt;&lt;div&gt;&lt;span style=&quot;&quot;&gt;&lt;span style=&quot;&quot;&gt;&amp;nbsp; &amp;nbsp; &amp;nbsp;&amp;nbsp;&lt;/span&gt;&lt;/span&gt;&lt;span style=&quot;&quot;&gt;&amp;nbsp;&lt;b&gt;2) &lt;/b&gt;&lt;/span&gt;&lt;b&gt;IpCam.cam_2()&lt;/b&gt; : yolov8n + mediapipe 보호구 착용 확인&lt;br&gt;&lt;/div&gt;&lt;div&gt;&lt;span style=&quot;&quot;&gt;&lt;span style=&quot;&quot;&gt;&amp;nbsp;&amp;nbsp;&lt;/span&gt;&lt;/span&gt;&lt;span style=&quot;&quot;&gt;&lt;span style=&quot;&quot;&gt;&amp;nbsp; &amp;nbsp;&amp;nbsp;&lt;/span&gt;&lt;/span&gt;&lt;span style=&quot;&quot;&gt;&lt;span style=&quot;&quot;&gt;&amp;nbsp;&amp;nbsp;&amp;nbsp;&amp;nbsp;&lt;/span&gt;&lt;/span&gt;[ input ] image path&lt;br&gt;&lt;/div&gt;&lt;div&gt;&lt;span style=&quot;background-color: initial;&quot;&gt;&amp;nbsp; &amp;nbsp;&amp;nbsp;&lt;/span&gt;&lt;span style=&quot;background-color: initial;&quot;&gt;&amp;nbsp; &lt;/span&gt;&lt;span style=&quot;background-color: initial;&quot;&gt;&amp;nbsp; &amp;nbsp;&amp;nbsp;&lt;/span&gt;&lt;span style=&quot;background-color: initial;&quot;&gt;[ output ] 보호구 착용 결과 dictionary 형태로 반환&amp;nbsp;{&quot;wc&quot; : warning_code, &quot;wr&quot; : wear}&lt;/span&gt;&lt;br&gt;&lt;/div&gt;&lt;div&gt;&lt;br&gt;&lt;/div&gt;&lt;div&gt;&lt;br&gt;&lt;/div&gt;&lt;div&gt;&lt;b&gt;&amp;nbsp; 2. check_leave()&amp;nbsp;&lt;/b&gt;: 퇴근 입력&lt;/div&gt;&lt;div&gt;&amp;nbsp; &amp;nbsp; &amp;nbsp; [ input ] image path(연결 캠 url 주소)&lt;/div&gt;&lt;div&gt;&amp;nbsp; &amp;nbsp; &amp;nbsp; [ output ] render attend/leave.html&lt;/div&gt;" style="text;html=1;spacing=5;spacingTop=-20;whiteSpace=wrap;overflow=hidden;rounded=0;fillColor=default;strokeColor=default;" parent="WIyWlLk6GJQsqaUBKTNV-1" vertex="1">
          <mxGeometry x="175" y="80" width="500" height="290" as="geometry" />
        </mxCell>
        <mxCell id="t8ODhXi5mGrMNo_j4XH1-7" value="" style="group" parent="WIyWlLk6GJQsqaUBKTNV-1" vertex="1" connectable="0">
          <mxGeometry x="410" y="520" width="150" height="40" as="geometry" />
        </mxCell>
        <mxCell id="t8ODhXi5mGrMNo_j4XH1-2" value="" style="verticalLabelPosition=bottom;verticalAlign=middle;html=1;shape=hexagon;perimeter=hexagonPerimeter2;arcSize=6;size=0.13333333333333333;" parent="t8ODhXi5mGrMNo_j4XH1-7" vertex="1">
          <mxGeometry width="150" height="40" as="geometry" />
        </mxCell>
        <mxCell id="t8ODhXi5mGrMNo_j4XH1-6" value="IP_webcam 연결" style="text;html=1;strokeColor=none;fillColor=none;align=center;verticalAlign=middle;whiteSpace=wrap;rounded=0;" parent="t8ODhXi5mGrMNo_j4XH1-7" vertex="1">
          <mxGeometry y="5" width="150" height="30" as="geometry" />
        </mxCell>
        <mxCell id="t8ODhXi5mGrMNo_j4XH1-9" value="&lt;b&gt;반복&lt;/b&gt;" style="text;html=1;strokeColor=none;fillColor=none;align=center;verticalAlign=middle;whiteSpace=wrap;rounded=0;" parent="WIyWlLk6GJQsqaUBKTNV-1" vertex="1">
          <mxGeometry x="365" y="580.87" width="40" height="19.130434782608695" as="geometry" />
        </mxCell>
        <mxCell id="WIyWlLk6GJQsqaUBKTNV-6" value="웹캠 연결이&lt;br&gt;잘 되었나?" style="rhombus;whiteSpace=wrap;html=1;shadow=0;fontFamily=Helvetica;fontSize=12;align=center;strokeWidth=1;spacing=6;spacingTop=-4;verticalAlign=middle;fillColor=#e1d5e7;strokeColor=#9673a6;" parent="WIyWlLk6GJQsqaUBKTNV-1" vertex="1">
          <mxGeometry x="425" y="640" width="120" height="70" as="geometry" />
        </mxCell>
        <mxCell id="WIyWlLk6GJQsqaUBKTNV-10" value="wid가 Workers&lt;br&gt;테이블에 존재하는가?" style="rhombus;whiteSpace=wrap;html=1;shadow=0;fontFamily=Helvetica;fontSize=12;align=center;strokeWidth=1;spacing=6;spacingTop=-4;container=0;fillColor=#e1d5e7;strokeColor=#9673a6;" parent="WIyWlLk6GJQsqaUBKTNV-1" vertex="1">
          <mxGeometry x="410" y="830" width="150" height="80" as="geometry" />
        </mxCell>
        <mxCell id="WIyWlLk6GJQsqaUBKTNV-4" value="Yes" style="rounded=0;html=1;jettySize=auto;orthogonalLoop=1;fontSize=11;endArrow=block;endFill=0;endSize=8;strokeWidth=1;shadow=0;labelBackgroundColor=none;edgeStyle=orthogonalEdgeStyle;" parent="WIyWlLk6GJQsqaUBKTNV-1" source="t8ODhXi5mGrMNo_j4XH1-14" target="WIyWlLk6GJQsqaUBKTNV-10" edge="1">
          <mxGeometry x="-1" y="63" relative="1" as="geometry">
            <mxPoint x="-43" y="-60" as="offset" />
          </mxGeometry>
        </mxCell>
        <mxCell id="t8ODhXi5mGrMNo_j4XH1-16" value="" style="rounded=0;html=1;jettySize=auto;orthogonalLoop=1;fontSize=11;endArrow=block;endFill=0;endSize=8;strokeWidth=1;shadow=0;labelBackgroundColor=none;edgeStyle=orthogonalEdgeStyle;" parent="WIyWlLk6GJQsqaUBKTNV-1" source="WIyWlLk6GJQsqaUBKTNV-6" target="t8ODhXi5mGrMNo_j4XH1-14" edge="1">
          <mxGeometry x="-0.7778" y="20" relative="1" as="geometry">
            <mxPoint as="offset" />
            <mxPoint x="625" y="1270" as="sourcePoint" />
            <mxPoint x="625" y="1360" as="targetPoint" />
          </mxGeometry>
        </mxCell>
        <mxCell id="t8ODhXi5mGrMNo_j4XH1-14" value="wid = ocr_model.recognize" style="rounded=1;whiteSpace=wrap;html=1;absoluteArcSize=1;arcSize=14;strokeWidth=1;" parent="WIyWlLk6GJQsqaUBKTNV-1" vertex="1">
          <mxGeometry x="400" y="750" width="170" height="40" as="geometry" />
        </mxCell>
        <mxCell id="t8ODhXi5mGrMNo_j4XH1-20" value="Workers&lt;br&gt;table" style="strokeWidth=1;html=1;shape=mxgraph.flowchart.database;whiteSpace=wrap;verticalAlign=bottom;labelPosition=center;verticalLabelPosition=middle;align=center;fillColor=#f5f5f5;fontColor=#333333;strokeColor=#666666;" parent="WIyWlLk6GJQsqaUBKTNV-1" vertex="1">
          <mxGeometry x="243" y="840" width="60" height="60" as="geometry" />
        </mxCell>
        <mxCell id="t8ODhXi5mGrMNo_j4XH1-21" value="" style="endArrow=classic;html=1;rounded=0;exitX=1;exitY=0.5;exitDx=0;exitDy=0;exitPerimeter=0;entryX=0;entryY=0.5;entryDx=0;entryDy=0;" parent="WIyWlLk6GJQsqaUBKTNV-1" source="t8ODhXi5mGrMNo_j4XH1-20" target="WIyWlLk6GJQsqaUBKTNV-10" edge="1">
          <mxGeometry width="50" height="50" relative="1" as="geometry">
            <mxPoint x="535" y="870" as="sourcePoint" />
            <mxPoint x="405" y="870" as="targetPoint" />
          </mxGeometry>
        </mxCell>
        <mxCell id="t8ODhXi5mGrMNo_j4XH1-22" value="Attendance&lt;br&gt;table" style="strokeWidth=1;html=1;shape=mxgraph.flowchart.database;whiteSpace=wrap;verticalAlign=bottom;labelPosition=center;verticalLabelPosition=middle;align=center;fillColor=#f5f5f5;fontColor=#333333;strokeColor=#666666;" parent="WIyWlLk6GJQsqaUBKTNV-1" vertex="1">
          <mxGeometry x="243" y="1040" width="60" height="60" as="geometry" />
        </mxCell>
        <mxCell id="t8ODhXi5mGrMNo_j4XH1-23" value="오늘 출근한 기록이&lt;br&gt;있는가?" style="strokeWidth=1;html=1;shape=mxgraph.flowchart.decision;whiteSpace=wrap;fillColor=#e1d5e7;strokeColor=#9673a6;" parent="WIyWlLk6GJQsqaUBKTNV-1" vertex="1">
          <mxGeometry x="415" y="975" width="140" height="80" as="geometry" />
        </mxCell>
        <mxCell id="t8ODhXi5mGrMNo_j4XH1-25" value="Attendance 테이블에&lt;br&gt;출근 데이터 입력" style="rounded=1;whiteSpace=wrap;html=1;fontSize=12;glass=0;strokeWidth=1;shadow=0;" parent="WIyWlLk6GJQsqaUBKTNV-1" vertex="1">
          <mxGeometry x="213" y="1105" width="120" height="40" as="geometry" />
        </mxCell>
        <mxCell id="t8ODhXi5mGrMNo_j4XH1-32" value="오늘 보호구 착용 판단&lt;br&gt;기록이 있는가?" style="strokeWidth=1;html=1;shape=mxgraph.flowchart.decision;whiteSpace=wrap;fillColor=#e1d5e7;strokeColor=#9673a6;" parent="WIyWlLk6GJQsqaUBKTNV-1" vertex="1">
          <mxGeometry x="635" y="962.5" width="140" height="105" as="geometry" />
        </mxCell>
        <mxCell id="t8ODhXi5mGrMNo_j4XH1-33" value="No" style="edgeStyle=orthogonalEdgeStyle;rounded=0;html=1;jettySize=auto;orthogonalLoop=1;fontSize=11;endArrow=block;endFill=0;endSize=8;strokeWidth=1;shadow=0;labelBackgroundColor=none;" parent="WIyWlLk6GJQsqaUBKTNV-1" target="t8ODhXi5mGrMNo_j4XH1-34" edge="1">
          <mxGeometry x="-0.2857" y="10" relative="1" as="geometry">
            <mxPoint as="offset" />
            <mxPoint x="560" y="870" as="sourcePoint" />
            <Array as="points">
              <mxPoint x="620" y="870" />
              <mxPoint x="620" y="870" />
            </Array>
          </mxGeometry>
        </mxCell>
        <mxCell id="t8ODhXi5mGrMNo_j4XH1-34" value="render attend 페이지 - WRONG ID" style="rounded=1;whiteSpace=wrap;html=1;fontSize=12;glass=0;strokeWidth=1;shadow=0;fillColor=#fff2cc;strokeColor=#d6b656;" parent="WIyWlLk6GJQsqaUBKTNV-1" vertex="1">
          <mxGeometry x="855" y="850" width="205" height="40" as="geometry" />
        </mxCell>
        <mxCell id="t8ODhXi5mGrMNo_j4XH1-40" value="No" style="edgeStyle=orthogonalEdgeStyle;rounded=0;html=1;jettySize=auto;orthogonalLoop=1;fontSize=11;endArrow=block;endFill=0;endSize=8;strokeWidth=1;shadow=0;labelBackgroundColor=none;exitX=0.5;exitY=1;exitDx=0;exitDy=0;entryX=0.5;entryY=0;entryDx=0;entryDy=0;" parent="WIyWlLk6GJQsqaUBKTNV-1" target="t8ODhXi5mGrMNo_j4XH1-42" edge="1">
          <mxGeometry x="-0.2308" y="21" relative="1" as="geometry">
            <mxPoint as="offset" />
            <mxPoint x="484.47" y="1055" as="sourcePoint" />
            <mxPoint x="485" y="1140" as="targetPoint" />
            <Array as="points" />
          </mxGeometry>
        </mxCell>
        <mxCell id="t8ODhXi5mGrMNo_j4XH1-41" value="" style="endArrow=classic;html=1;rounded=0;entryX=1.023;entryY=0.633;entryDx=0;entryDy=0;entryPerimeter=0;" parent="WIyWlLk6GJQsqaUBKTNV-1" target="t8ODhXi5mGrMNo_j4XH1-22" edge="1">
          <mxGeometry width="50" height="50" relative="1" as="geometry">
            <mxPoint x="485" y="1080" as="sourcePoint" />
            <mxPoint x="348.7199999999999" y="1087.08" as="targetPoint" />
          </mxGeometry>
        </mxCell>
        <mxCell id="t8ODhXi5mGrMNo_j4XH1-42" value="check_result = safety_chk" style="rounded=1;whiteSpace=wrap;html=1;absoluteArcSize=1;arcSize=14;strokeWidth=1;" parent="WIyWlLk6GJQsqaUBKTNV-1" vertex="1">
          <mxGeometry x="400" y="1169" width="170" height="40" as="geometry" />
        </mxCell>
        <mxCell id="t8ODhXi5mGrMNo_j4XH1-43" value="No" style="rounded=0;html=1;jettySize=auto;orthogonalLoop=1;fontSize=11;endArrow=block;endFill=0;endSize=8;strokeWidth=1;shadow=0;labelBackgroundColor=none;edgeStyle=orthogonalEdgeStyle;entryX=1;entryY=0.5;entryDx=0;entryDy=0;" parent="WIyWlLk6GJQsqaUBKTNV-1" target="t8ODhXi5mGrMNo_j4XH1-42" edge="1">
          <mxGeometry x="0.1033" y="-19" relative="1" as="geometry">
            <mxPoint as="offset" />
            <mxPoint x="705" y="1070" as="sourcePoint" />
            <mxPoint x="785" y="1067.5" as="targetPoint" />
            <Array as="points">
              <mxPoint x="705" y="1189" />
            </Array>
          </mxGeometry>
        </mxCell>
        <mxCell id="t8ODhXi5mGrMNo_j4XH1-44" value="Yes" style="rounded=0;html=1;jettySize=auto;orthogonalLoop=1;fontSize=11;endArrow=block;endFill=0;endSize=8;strokeWidth=1;shadow=0;labelBackgroundColor=none;edgeStyle=orthogonalEdgeStyle;exitX=1;exitY=0.5;exitDx=0;exitDy=0;exitPerimeter=0;" parent="WIyWlLk6GJQsqaUBKTNV-1" edge="1">
          <mxGeometry x="-0.25" y="15" relative="1" as="geometry">
            <mxPoint as="offset" />
            <mxPoint x="775" y="1014.57" as="sourcePoint" />
            <mxPoint x="855" y="1014.57" as="targetPoint" />
          </mxGeometry>
        </mxCell>
        <mxCell id="t8ODhXi5mGrMNo_j4XH1-45" value="render attend 페이지 - 이미 출근 완료" style="rounded=1;whiteSpace=wrap;html=1;fontSize=12;glass=0;strokeWidth=1;shadow=0;fillColor=#fff2cc;strokeColor=#d6b656;" parent="WIyWlLk6GJQsqaUBKTNV-1" vertex="1">
          <mxGeometry x="855" y="995" width="220" height="40" as="geometry" />
        </mxCell>
        <mxCell id="t8ODhXi5mGrMNo_j4XH1-46" value="" style="rounded=0;html=1;jettySize=auto;orthogonalLoop=1;fontSize=11;endArrow=block;endFill=0;endSize=8;strokeWidth=1;shadow=0;labelBackgroundColor=none;edgeStyle=orthogonalEdgeStyle;exitX=0.5;exitY=1;exitDx=0;exitDy=0;entryX=0.5;entryY=0;entryDx=0;entryDy=0;" parent="WIyWlLk6GJQsqaUBKTNV-1" source="t8ODhXi5mGrMNo_j4XH1-42" target="t8ODhXi5mGrMNo_j4XH1-47" edge="1">
          <mxGeometry x="-0.25" y="15" relative="1" as="geometry">
            <mxPoint as="offset" />
            <mxPoint x="475" y="1220" as="sourcePoint" />
            <mxPoint x="485" y="1250" as="targetPoint" />
          </mxGeometry>
        </mxCell>
        <mxCell id="t8ODhXi5mGrMNo_j4XH1-47" value="render attend 페이지 - 출근, 보호구 기록 완료" style="rounded=1;whiteSpace=wrap;html=1;fontSize=12;glass=0;strokeWidth=1;shadow=0;fillColor=#fff2cc;strokeColor=#d6b656;" parent="WIyWlLk6GJQsqaUBKTNV-1" vertex="1">
          <mxGeometry x="355" y="1360" width="260" height="40" as="geometry" />
        </mxCell>
        <mxCell id="t8ODhXi5mGrMNo_j4XH1-48" value="Safety_check&lt;br&gt;table" style="strokeWidth=1;html=1;shape=mxgraph.flowchart.database;whiteSpace=wrap;verticalAlign=bottom;labelPosition=center;verticalLabelPosition=middle;align=center;fillColor=#f5f5f5;fontColor=#333333;strokeColor=#666666;" parent="WIyWlLk6GJQsqaUBKTNV-1" vertex="1">
          <mxGeometry x="223" y="1220" width="80" height="60" as="geometry" />
        </mxCell>
        <mxCell id="t8ODhXi5mGrMNo_j4XH1-49" value="Safety_check 테이블에&lt;br&gt;보호구 착용 코드 입력" style="rounded=1;whiteSpace=wrap;html=1;fontSize=12;glass=0;strokeWidth=1;shadow=0;" parent="WIyWlLk6GJQsqaUBKTNV-1" vertex="1">
          <mxGeometry x="195" y="1288" width="140" height="40" as="geometry" />
        </mxCell>
        <mxCell id="t8ODhXi5mGrMNo_j4XH1-50" value="" style="endArrow=classic;html=1;rounded=0;entryX=1.023;entryY=0.633;entryDx=0;entryDy=0;entryPerimeter=0;" parent="WIyWlLk6GJQsqaUBKTNV-1" target="t8ODhXi5mGrMNo_j4XH1-48" edge="1">
          <mxGeometry width="50" height="50" relative="1" as="geometry">
            <mxPoint x="485" y="1258" as="sourcePoint" />
            <mxPoint x="308.7199999999999" y="1267.08" as="targetPoint" />
          </mxGeometry>
        </mxCell>
        <mxCell id="t8ODhXi5mGrMNo_j4XH1-57" value="&lt;h1&gt;1. check_attendance 알고리즘&lt;/h1&gt;" style="text;html=1;strokeColor=none;fillColor=none;spacing=5;spacingTop=-20;whiteSpace=wrap;overflow=hidden;rounded=0;" parent="WIyWlLk6GJQsqaUBKTNV-1" vertex="1">
          <mxGeometry x="175" y="390" width="350" height="40" as="geometry" />
        </mxCell>
        <mxCell id="t8ODhXi5mGrMNo_j4XH1-94" value="" style="rounded=0;whiteSpace=wrap;html=1;absoluteArcSize=1;arcSize=14;strokeWidth=1;fillColor=none;dashed=1;dashPattern=12 12;" parent="WIyWlLk6GJQsqaUBKTNV-1" vertex="1">
          <mxGeometry x="1775" y="610" width="250" height="710" as="geometry" />
        </mxCell>
        <mxCell id="t8ODhXi5mGrMNo_j4XH1-96" value="" style="rounded=0;html=1;jettySize=auto;orthogonalLoop=1;fontSize=11;endArrow=block;endFill=0;endSize=8;strokeWidth=1;shadow=0;labelBackgroundColor=none;edgeStyle=orthogonalEdgeStyle;" parent="WIyWlLk6GJQsqaUBKTNV-1" source="t8ODhXi5mGrMNo_j4XH1-97" target="t8ODhXi5mGrMNo_j4XH1-105" edge="1">
          <mxGeometry relative="1" as="geometry" />
        </mxCell>
        <mxCell id="t8ODhXi5mGrMNo_j4XH1-97" value="Start" style="rounded=1;whiteSpace=wrap;html=1;fontSize=12;glass=0;strokeWidth=1;shadow=0;arcSize=50;fillColor=#d5e8d4;strokeColor=#82b366;" parent="WIyWlLk6GJQsqaUBKTNV-1" vertex="1">
          <mxGeometry x="1865" y="450" width="60" height="40" as="geometry" />
        </mxCell>
        <mxCell id="t8ODhXi5mGrMNo_j4XH1-98" value="No" style="edgeStyle=orthogonalEdgeStyle;rounded=0;html=1;jettySize=auto;orthogonalLoop=1;fontSize=11;endArrow=block;endFill=0;endSize=8;strokeWidth=1;shadow=0;labelBackgroundColor=none;" parent="WIyWlLk6GJQsqaUBKTNV-1" source="t8ODhXi5mGrMNo_j4XH1-105" target="t8ODhXi5mGrMNo_j4XH1-99" edge="1">
          <mxGeometry x="-0.142" y="15" relative="1" as="geometry">
            <mxPoint as="offset" />
            <Array as="points">
              <mxPoint x="2015" y="675" />
              <mxPoint x="2015" y="675" />
            </Array>
          </mxGeometry>
        </mxCell>
        <mxCell id="t8ODhXi5mGrMNo_j4XH1-99" value="render 에러페이지" style="rounded=1;whiteSpace=wrap;html=1;fontSize=12;glass=0;strokeWidth=1;shadow=0;fillColor=#fff2cc;strokeColor=#d6b656;" parent="WIyWlLk6GJQsqaUBKTNV-1" vertex="1">
          <mxGeometry x="2070" y="655" width="120" height="40" as="geometry" />
        </mxCell>
        <mxCell id="t8ODhXi5mGrMNo_j4XH1-100" value="Yes" style="edgeStyle=orthogonalEdgeStyle;rounded=0;html=1;jettySize=auto;orthogonalLoop=1;fontSize=11;endArrow=block;endFill=0;endSize=8;strokeWidth=1;shadow=0;labelBackgroundColor=none;exitX=0.5;exitY=1;exitDx=0;exitDy=0;entryX=0.5;entryY=0;entryDx=0;entryDy=0;entryPerimeter=0;" parent="WIyWlLk6GJQsqaUBKTNV-1" source="t8ODhXi5mGrMNo_j4XH1-106" target="t8ODhXi5mGrMNo_j4XH1-113" edge="1">
          <mxGeometry x="0.2308" y="20" relative="1" as="geometry">
            <mxPoint as="offset" />
            <mxPoint x="1971" y="870" as="sourcePoint" />
            <mxPoint x="2036" y="870" as="targetPoint" />
            <Array as="points" />
          </mxGeometry>
        </mxCell>
        <mxCell id="t8ODhXi5mGrMNo_j4XH1-101" value="" style="group" parent="WIyWlLk6GJQsqaUBKTNV-1" vertex="1" connectable="0">
          <mxGeometry x="1820" y="520" width="150" height="40" as="geometry" />
        </mxCell>
        <mxCell id="t8ODhXi5mGrMNo_j4XH1-102" value="" style="verticalLabelPosition=bottom;verticalAlign=middle;html=1;shape=hexagon;perimeter=hexagonPerimeter2;arcSize=6;size=0.13333333333333333;" parent="t8ODhXi5mGrMNo_j4XH1-101" vertex="1">
          <mxGeometry width="150" height="40" as="geometry" />
        </mxCell>
        <mxCell id="t8ODhXi5mGrMNo_j4XH1-103" value="IP_webcam 연결" style="text;html=1;strokeColor=none;fillColor=none;align=center;verticalAlign=middle;whiteSpace=wrap;rounded=0;" parent="t8ODhXi5mGrMNo_j4XH1-101" vertex="1">
          <mxGeometry y="5" width="150" height="30" as="geometry" />
        </mxCell>
        <mxCell id="t8ODhXi5mGrMNo_j4XH1-104" value="&lt;b&gt;반복&lt;/b&gt;" style="text;html=1;strokeColor=none;fillColor=none;align=center;verticalAlign=middle;whiteSpace=wrap;rounded=0;" parent="WIyWlLk6GJQsqaUBKTNV-1" vertex="1">
          <mxGeometry x="1775" y="580.87" width="40" height="19.130434782608695" as="geometry" />
        </mxCell>
        <mxCell id="t8ODhXi5mGrMNo_j4XH1-105" value="웹캠 연결이&lt;br&gt;잘 되었나?" style="rhombus;whiteSpace=wrap;html=1;shadow=0;fontFamily=Helvetica;fontSize=12;align=center;strokeWidth=1;spacing=6;spacingTop=-4;verticalAlign=middle;fillColor=#e1d5e7;strokeColor=#9673a6;" parent="WIyWlLk6GJQsqaUBKTNV-1" vertex="1">
          <mxGeometry x="1835" y="640" width="120" height="70" as="geometry" />
        </mxCell>
        <mxCell id="t8ODhXi5mGrMNo_j4XH1-106" value="wid가 Workers&lt;br&gt;테이블에 존재하는가?" style="rhombus;whiteSpace=wrap;html=1;shadow=0;fontFamily=Helvetica;fontSize=12;align=center;strokeWidth=1;spacing=6;spacingTop=-4;container=0;fillColor=#e1d5e7;strokeColor=#9673a6;" parent="WIyWlLk6GJQsqaUBKTNV-1" vertex="1">
          <mxGeometry x="1820" y="830" width="150" height="80" as="geometry" />
        </mxCell>
        <mxCell id="t8ODhXi5mGrMNo_j4XH1-107" value="Yes" style="rounded=0;html=1;jettySize=auto;orthogonalLoop=1;fontSize=11;endArrow=block;endFill=0;endSize=8;strokeWidth=1;shadow=0;labelBackgroundColor=none;edgeStyle=orthogonalEdgeStyle;" parent="WIyWlLk6GJQsqaUBKTNV-1" source="t8ODhXi5mGrMNo_j4XH1-109" target="t8ODhXi5mGrMNo_j4XH1-106" edge="1">
          <mxGeometry x="-1" y="63" relative="1" as="geometry">
            <mxPoint x="-43" y="-60" as="offset" />
          </mxGeometry>
        </mxCell>
        <mxCell id="t8ODhXi5mGrMNo_j4XH1-108" value="" style="rounded=0;html=1;jettySize=auto;orthogonalLoop=1;fontSize=11;endArrow=block;endFill=0;endSize=8;strokeWidth=1;shadow=0;labelBackgroundColor=none;edgeStyle=orthogonalEdgeStyle;" parent="WIyWlLk6GJQsqaUBKTNV-1" source="t8ODhXi5mGrMNo_j4XH1-105" target="t8ODhXi5mGrMNo_j4XH1-109" edge="1">
          <mxGeometry x="-0.7778" y="20" relative="1" as="geometry">
            <mxPoint as="offset" />
            <mxPoint x="2035" y="1270" as="sourcePoint" />
            <mxPoint x="2035" y="1360" as="targetPoint" />
          </mxGeometry>
        </mxCell>
        <mxCell id="t8ODhXi5mGrMNo_j4XH1-109" value="wid = ocr_model.recognize" style="rounded=1;whiteSpace=wrap;html=1;absoluteArcSize=1;arcSize=14;strokeWidth=1;" parent="WIyWlLk6GJQsqaUBKTNV-1" vertex="1">
          <mxGeometry x="1810" y="750" width="170" height="40" as="geometry" />
        </mxCell>
        <mxCell id="t8ODhXi5mGrMNo_j4XH1-110" value="Workers&lt;br&gt;table" style="strokeWidth=1;html=1;shape=mxgraph.flowchart.database;whiteSpace=wrap;verticalAlign=bottom;labelPosition=center;verticalLabelPosition=middle;align=center;fillColor=#f5f5f5;fontColor=#333333;strokeColor=#666666;" parent="WIyWlLk6GJQsqaUBKTNV-1" vertex="1">
          <mxGeometry x="1653" y="840" width="60" height="60" as="geometry" />
        </mxCell>
        <mxCell id="t8ODhXi5mGrMNo_j4XH1-111" value="" style="endArrow=classic;html=1;rounded=0;exitX=1;exitY=0.5;exitDx=0;exitDy=0;exitPerimeter=0;entryX=0;entryY=0.5;entryDx=0;entryDy=0;" parent="WIyWlLk6GJQsqaUBKTNV-1" source="t8ODhXi5mGrMNo_j4XH1-110" target="t8ODhXi5mGrMNo_j4XH1-106" edge="1">
          <mxGeometry width="50" height="50" relative="1" as="geometry">
            <mxPoint x="1945" y="870" as="sourcePoint" />
            <mxPoint x="1815" y="870" as="targetPoint" />
          </mxGeometry>
        </mxCell>
        <mxCell id="t8ODhXi5mGrMNo_j4XH1-113" value="오늘 출근한 기록이&lt;br&gt;있는가?" style="strokeWidth=1;html=1;shape=mxgraph.flowchart.decision;whiteSpace=wrap;fillColor=#e1d5e7;strokeColor=#9673a6;" parent="WIyWlLk6GJQsqaUBKTNV-1" vertex="1">
          <mxGeometry x="1825" y="975" width="140" height="80" as="geometry" />
        </mxCell>
        <mxCell id="t8ODhXi5mGrMNo_j4XH1-115" value="오늘 퇴근한 기록이&lt;br&gt;있는가?" style="strokeWidth=1;html=1;shape=mxgraph.flowchart.decision;whiteSpace=wrap;fillColor=#e1d5e7;strokeColor=#9673a6;" parent="WIyWlLk6GJQsqaUBKTNV-1" vertex="1">
          <mxGeometry x="1825" y="1150" width="140" height="90" as="geometry" />
        </mxCell>
        <mxCell id="t8ODhXi5mGrMNo_j4XH1-116" value="No" style="edgeStyle=orthogonalEdgeStyle;rounded=0;html=1;jettySize=auto;orthogonalLoop=1;fontSize=11;endArrow=block;endFill=0;endSize=8;strokeWidth=1;shadow=0;labelBackgroundColor=none;" parent="WIyWlLk6GJQsqaUBKTNV-1" target="t8ODhXi5mGrMNo_j4XH1-117" edge="1">
          <mxGeometry x="-0.2857" y="10" relative="1" as="geometry">
            <mxPoint as="offset" />
            <mxPoint x="1970" y="870" as="sourcePoint" />
            <Array as="points">
              <mxPoint x="2030" y="870" />
              <mxPoint x="2030" y="870" />
            </Array>
          </mxGeometry>
        </mxCell>
        <mxCell id="t8ODhXi5mGrMNo_j4XH1-117" value="render leave 페이지 - WRONG ID" style="rounded=1;whiteSpace=wrap;html=1;fontSize=12;glass=0;strokeWidth=1;shadow=0;fillColor=#fff2cc;strokeColor=#d6b656;" parent="WIyWlLk6GJQsqaUBKTNV-1" vertex="1">
          <mxGeometry x="2065" y="850" width="205" height="40" as="geometry" />
        </mxCell>
        <mxCell id="t8ODhXi5mGrMNo_j4XH1-118" value="Yes" style="edgeStyle=orthogonalEdgeStyle;rounded=0;html=1;jettySize=auto;orthogonalLoop=1;fontSize=11;endArrow=block;endFill=0;endSize=8;strokeWidth=1;shadow=0;labelBackgroundColor=none;exitX=0.5;exitY=1;exitDx=0;exitDy=0;" parent="WIyWlLk6GJQsqaUBKTNV-1" edge="1">
          <mxGeometry x="-0.2308" y="21" relative="1" as="geometry">
            <mxPoint as="offset" />
            <mxPoint x="1894.47" y="1055" as="sourcePoint" />
            <mxPoint x="1895" y="1150" as="targetPoint" />
            <Array as="points" />
          </mxGeometry>
        </mxCell>
        <mxCell id="t8ODhXi5mGrMNo_j4XH1-122" value="No" style="rounded=0;html=1;jettySize=auto;orthogonalLoop=1;fontSize=11;endArrow=block;endFill=0;endSize=8;strokeWidth=1;shadow=0;labelBackgroundColor=none;edgeStyle=orthogonalEdgeStyle;exitX=1;exitY=0.5;exitDx=0;exitDy=0;exitPerimeter=0;entryX=0;entryY=0.5;entryDx=0;entryDy=0;" parent="WIyWlLk6GJQsqaUBKTNV-1" target="t8ODhXi5mGrMNo_j4XH1-123" edge="1">
          <mxGeometry x="-0.25" y="15" relative="1" as="geometry">
            <mxPoint as="offset" />
            <mxPoint x="1965" y="1014.57" as="sourcePoint" />
            <mxPoint x="2045" y="1014.57" as="targetPoint" />
          </mxGeometry>
        </mxCell>
        <mxCell id="t8ODhXi5mGrMNo_j4XH1-123" value="render leave 페이지 - 출근하지 않은 작업자" style="rounded=1;whiteSpace=wrap;html=1;fontSize=12;glass=0;strokeWidth=1;shadow=0;fillColor=#fff2cc;strokeColor=#d6b656;" parent="WIyWlLk6GJQsqaUBKTNV-1" vertex="1">
          <mxGeometry x="2065" y="995" width="240" height="40" as="geometry" />
        </mxCell>
        <mxCell id="t8ODhXi5mGrMNo_j4XH1-124" value="" style="rounded=0;html=1;jettySize=auto;orthogonalLoop=1;fontSize=11;endArrow=block;endFill=0;endSize=8;strokeWidth=1;shadow=0;labelBackgroundColor=none;edgeStyle=orthogonalEdgeStyle;exitX=0.5;exitY=1;exitDx=0;exitDy=0;" parent="WIyWlLk6GJQsqaUBKTNV-1" edge="1">
          <mxGeometry x="-0.25" y="15" relative="1" as="geometry">
            <mxPoint as="offset" />
            <mxPoint x="1895" y="1240" as="sourcePoint" />
            <mxPoint x="1895" y="1350" as="targetPoint" />
          </mxGeometry>
        </mxCell>
        <mxCell id="t8ODhXi5mGrMNo_j4XH1-125" value="render leave 페이지 - 퇴근 기록 완료" style="rounded=1;whiteSpace=wrap;html=1;fontSize=12;glass=0;strokeWidth=1;shadow=0;fillColor=#fff2cc;strokeColor=#d6b656;" parent="WIyWlLk6GJQsqaUBKTNV-1" vertex="1">
          <mxGeometry x="1795" y="1360" width="200" height="40" as="geometry" />
        </mxCell>
        <mxCell id="t8ODhXi5mGrMNo_j4XH1-126" value="Attendance&lt;br&gt;table" style="strokeWidth=1;html=1;shape=mxgraph.flowchart.database;whiteSpace=wrap;verticalAlign=bottom;labelPosition=center;verticalLabelPosition=middle;align=center;fillColor=#f5f5f5;fontColor=#333333;strokeColor=#666666;" parent="WIyWlLk6GJQsqaUBKTNV-1" vertex="1">
          <mxGeometry x="1633" y="1220" width="80" height="60" as="geometry" />
        </mxCell>
        <mxCell id="t8ODhXi5mGrMNo_j4XH1-127" value="Attendance테이블에&lt;br&gt;퇴근 기록 입력" style="rounded=1;whiteSpace=wrap;html=1;fontSize=12;glass=0;strokeWidth=1;shadow=0;" parent="WIyWlLk6GJQsqaUBKTNV-1" vertex="1">
          <mxGeometry x="1605" y="1288" width="140" height="40" as="geometry" />
        </mxCell>
        <mxCell id="t8ODhXi5mGrMNo_j4XH1-128" value="" style="endArrow=classic;html=1;rounded=0;entryX=1.023;entryY=0.633;entryDx=0;entryDy=0;entryPerimeter=0;" parent="WIyWlLk6GJQsqaUBKTNV-1" target="t8ODhXi5mGrMNo_j4XH1-126" edge="1">
          <mxGeometry width="50" height="50" relative="1" as="geometry">
            <mxPoint x="1895" y="1258" as="sourcePoint" />
            <mxPoint x="1718.7199999999998" y="1267.08" as="targetPoint" />
          </mxGeometry>
        </mxCell>
        <mxCell id="t8ODhXi5mGrMNo_j4XH1-129" value="&lt;h1&gt;2. check_leave 알고리즘&lt;/h1&gt;" style="text;html=1;strokeColor=none;fillColor=none;spacing=5;spacingTop=-20;whiteSpace=wrap;overflow=hidden;rounded=0;" parent="WIyWlLk6GJQsqaUBKTNV-1" vertex="1">
          <mxGeometry x="1585" y="390" width="350" height="40" as="geometry" />
        </mxCell>
        <mxCell id="t8ODhXi5mGrMNo_j4XH1-130" value="No" style="text;html=1;strokeColor=none;fillColor=none;align=center;verticalAlign=middle;whiteSpace=wrap;rounded=0;" parent="WIyWlLk6GJQsqaUBKTNV-1" vertex="1">
          <mxGeometry x="1895" y="1258" width="60" height="30" as="geometry" />
        </mxCell>
        <mxCell id="t8ODhXi5mGrMNo_j4XH1-131" value="Yes" style="rounded=0;html=1;jettySize=auto;orthogonalLoop=1;fontSize=11;endArrow=block;endFill=0;endSize=8;strokeWidth=1;shadow=0;labelBackgroundColor=none;edgeStyle=orthogonalEdgeStyle;exitX=1;exitY=0.5;exitDx=0;exitDy=0;exitPerimeter=0;entryX=0;entryY=0.5;entryDx=0;entryDy=0;" parent="WIyWlLk6GJQsqaUBKTNV-1" target="t8ODhXi5mGrMNo_j4XH1-132" edge="1">
          <mxGeometry x="-0.25" y="15" relative="1" as="geometry">
            <mxPoint as="offset" />
            <mxPoint x="1965" y="1194.5700000000002" as="sourcePoint" />
            <mxPoint x="2045" y="1194.5700000000002" as="targetPoint" />
          </mxGeometry>
        </mxCell>
        <mxCell id="t8ODhXi5mGrMNo_j4XH1-132" value="render leave 페이지 - 이미 퇴근 기록 완료" style="rounded=1;whiteSpace=wrap;html=1;fontSize=12;glass=0;strokeWidth=1;shadow=0;fillColor=#fff2cc;strokeColor=#d6b656;" parent="WIyWlLk6GJQsqaUBKTNV-1" vertex="1">
          <mxGeometry x="2065" y="1175" width="240" height="40" as="geometry" />
        </mxCell>
        <mxCell id="JxpAUDQ2TrkmLamKXuE_-1" value="" style="endArrow=classic;html=1;rounded=0;strokeWidth=3;strokeColor=#808080;" parent="WIyWlLk6GJQsqaUBKTNV-1" edge="1">
          <mxGeometry width="50" height="50" relative="1" as="geometry">
            <mxPoint x="515" y="1210" as="sourcePoint" />
            <mxPoint x="1225" y="500" as="targetPoint" />
            <Array as="points">
              <mxPoint x="515" y="1270" />
              <mxPoint x="1105" y="1270" />
              <mxPoint x="1105" y="500" />
            </Array>
          </mxGeometry>
        </mxCell>
        <mxCell id="JxpAUDQ2TrkmLamKXuE_-2" value="check_result = safety_chk" style="rounded=1;whiteSpace=wrap;html=1;absoluteArcSize=1;arcSize=14;strokeWidth=1;" parent="WIyWlLk6GJQsqaUBKTNV-1" vertex="1">
          <mxGeometry x="1225" y="480" width="170" height="40" as="geometry" />
        </mxCell>
        <mxCell id="JxpAUDQ2TrkmLamKXuE_-3" value="[ 반복 : cnt=0에서 cnt&amp;lt;5일 때까지 ] IpCam.cam_2" style="rounded=0;whiteSpace=wrap;html=1;absoluteArcSize=1;arcSize=14;strokeWidth=1;" parent="WIyWlLk6GJQsqaUBKTNV-1" vertex="1">
          <mxGeometry x="1135" y="600" width="350" height="40" as="geometry" />
        </mxCell>
        <mxCell id="JxpAUDQ2TrkmLamKXuE_-5" value="" style="edgeStyle=orthogonalEdgeStyle;rounded=0;html=1;jettySize=auto;orthogonalLoop=1;fontSize=11;endArrow=block;endFill=0;endSize=8;strokeWidth=1;shadow=0;labelBackgroundColor=none;" parent="WIyWlLk6GJQsqaUBKTNV-1" edge="1">
          <mxGeometry x="-0.1407" y="15" relative="1" as="geometry">
            <mxPoint as="offset" />
            <Array as="points">
              <mxPoint x="1309.68" y="585.44" />
            </Array>
            <mxPoint x="1310" y="520" as="sourcePoint" />
            <mxPoint x="1309.68" y="595.44" as="targetPoint" />
          </mxGeometry>
        </mxCell>
        <mxCell id="JxpAUDQ2TrkmLamKXuE_-9" value="" style="edgeStyle=orthogonalEdgeStyle;rounded=0;html=1;jettySize=auto;orthogonalLoop=1;fontSize=11;endArrow=block;endFill=0;endSize=8;strokeWidth=1;shadow=0;labelBackgroundColor=none;" parent="WIyWlLk6GJQsqaUBKTNV-1" edge="1">
          <mxGeometry x="-0.1407" y="15" relative="1" as="geometry">
            <mxPoint as="offset" />
            <Array as="points">
              <mxPoint x="1309.55" y="705.44" />
            </Array>
            <mxPoint x="1309.87" y="640" as="sourcePoint" />
            <mxPoint x="1310" y="820" as="targetPoint" />
          </mxGeometry>
        </mxCell>
        <mxCell id="JxpAUDQ2TrkmLamKXuE_-6" value="media_pipe(image) - 필요 좌표 추출" style="rounded=1;whiteSpace=wrap;html=1;absoluteArcSize=1;arcSize=14;strokeWidth=1;" parent="WIyWlLk6GJQsqaUBKTNV-1" vertex="1">
          <mxGeometry x="1195" y="670" width="240" height="40" as="geometry" />
        </mxCell>
        <mxCell id="JxpAUDQ2TrkmLamKXuE_-10" value="check_yolo(image) - 보호구 bounding boxes 좌표 추출" style="rounded=1;whiteSpace=wrap;html=1;absoluteArcSize=1;arcSize=14;strokeWidth=1;" parent="WIyWlLk6GJQsqaUBKTNV-1" vertex="1">
          <mxGeometry x="1160" y="730" width="300" height="40" as="geometry" />
        </mxCell>
        <mxCell id="JxpAUDQ2TrkmLamKXuE_-11" value="보호구를 정확한 위치에 착용하였는가?&lt;br&gt;(media_pipe 좌표들로 만든 영역 내에 각 bounding box의 중앙점이 존재하는가)&amp;nbsp;" style="rhombus;whiteSpace=wrap;html=1;shadow=0;fontFamily=Helvetica;fontSize=12;align=center;strokeWidth=1;spacing=6;spacingTop=-4;container=0;fillColor=#e1d5e7;strokeColor=#9673a6;" parent="WIyWlLk6GJQsqaUBKTNV-1" vertex="1">
          <mxGeometry x="1155" y="820" width="310" height="110" as="geometry" />
        </mxCell>
        <mxCell id="JxpAUDQ2TrkmLamKXuE_-14" value="Yes" style="rounded=0;html=1;jettySize=auto;orthogonalLoop=1;fontSize=11;endArrow=block;endFill=0;endSize=8;strokeWidth=1;shadow=0;labelBackgroundColor=none;edgeStyle=orthogonalEdgeStyle;exitX=0.5;exitY=1;exitDx=0;exitDy=0;" parent="WIyWlLk6GJQsqaUBKTNV-1" source="JxpAUDQ2TrkmLamKXuE_-11" edge="1">
          <mxGeometry y="15" relative="1" as="geometry">
            <mxPoint as="offset" />
            <mxPoint x="1325" y="980" as="sourcePoint" />
            <mxPoint x="1310" y="990" as="targetPoint" />
            <Array as="points">
              <mxPoint x="1310" y="960" />
              <mxPoint x="1311" y="960" />
              <mxPoint x="1311" y="990" />
            </Array>
          </mxGeometry>
        </mxCell>
        <mxCell id="JxpAUDQ2TrkmLamKXuE_-17" value="결과저장리스트.append(결과에 해당하는 경고 코드)&lt;br&gt;cnt += 1" style="rounded=1;whiteSpace=wrap;html=1;absoluteArcSize=1;arcSize=14;strokeWidth=1;" parent="WIyWlLk6GJQsqaUBKTNV-1" vertex="1">
          <mxGeometry x="1162.5" y="995" width="302.5" height="40" as="geometry" />
        </mxCell>
        <mxCell id="JxpAUDQ2TrkmLamKXuE_-18" value="" style="edgeStyle=orthogonalEdgeStyle;rounded=0;html=1;jettySize=auto;orthogonalLoop=1;fontSize=11;endArrow=block;endFill=0;endSize=8;strokeWidth=1;shadow=0;labelBackgroundColor=none;" parent="WIyWlLk6GJQsqaUBKTNV-1" edge="1">
          <mxGeometry x="-0.1407" y="15" relative="1" as="geometry">
            <mxPoint as="offset" />
            <Array as="points">
              <mxPoint x="1309.68" y="1100.44" />
            </Array>
            <mxPoint x="1310" y="1035" as="sourcePoint" />
            <mxPoint x="1310" y="1120" as="targetPoint" />
          </mxGeometry>
        </mxCell>
        <mxCell id="JxpAUDQ2TrkmLamKXuE_-20" value="결과 저장 리스트에서 가장 많이 저장된 경고코드 return" style="rounded=1;whiteSpace=wrap;html=1;absoluteArcSize=1;arcSize=14;strokeWidth=1;" parent="WIyWlLk6GJQsqaUBKTNV-1" vertex="1">
          <mxGeometry x="1147.5" y="1120" width="325" height="40" as="geometry" />
        </mxCell>
        <mxCell id="JxpAUDQ2TrkmLamKXuE_-22" value="" style="endArrow=classic;html=1;rounded=0;exitX=0.5;exitY=1;exitDx=0;exitDy=0;strokeWidth=3;strokeColor=#808080;" parent="WIyWlLk6GJQsqaUBKTNV-1" source="JxpAUDQ2TrkmLamKXuE_-20" edge="1">
          <mxGeometry width="50" height="50" relative="1" as="geometry">
            <mxPoint x="1185" y="1219" as="sourcePoint" />
            <mxPoint x="575" y="1210" as="targetPoint" />
            <Array as="points">
              <mxPoint x="1310" y="1210" />
            </Array>
          </mxGeometry>
        </mxCell>
        <mxCell id="JxpAUDQ2TrkmLamKXuE_-23" value="" style="shape=link;html=1;rounded=0;" parent="WIyWlLk6GJQsqaUBKTNV-1" edge="1">
          <mxGeometry width="100" relative="1" as="geometry">
            <mxPoint x="1545" y="350" as="sourcePoint" />
            <mxPoint x="1545" y="1457.142857142857" as="targetPoint" />
          </mxGeometry>
        </mxCell>
        <mxCell id="FoLEM5Vmu16NB8dC14Jf-0" value="Text" style="text;html=1;align=center;verticalAlign=middle;resizable=0;points=[];autosize=1;" parent="WIyWlLk6GJQsqaUBKTNV-1" vertex="1">
          <mxGeometry x="1300" y="551" width="50" height="30" as="geometry" />
        </mxCell>
      </root>
    </mxGraphModel>
  </diagram>
</mxfile>
